<?xml version="1.0" encoding="UTF-8" standalone="no"?>
<!-- Created with Inkscape (http://www.inkscape.org/) -->

<svg
   xmlns:dc="http://purl.org/dc/elements/1.1/"
   xmlns:cc="http://creativecommons.org/ns#"
   xmlns:rdf="http://www.w3.org/1999/02/22-rdf-syntax-ns#"
   xmlns:svg="http://www.w3.org/2000/svg"
   xmlns="http://www.w3.org/2000/svg"
   xmlns:sodipodi="http://sodipodi.sourceforge.net/DTD/sodipodi-0.dtd"
   xmlns:inkscape="http://www.inkscape.org/namespaces/inkscape"
   width="200"
   height="200"
   viewBox="0 0 52.916668 52.916666"
   version="1.1"
   id="svg8"
   inkscape:version="0.92.1 r15371"
   sodipodi:docname="wealth.svg">
  <defs
     id="defs2">
    <inkscape:path-effect
       effect="envelope"
       id="path-effect4658"
       is_visible="true"
       yy="true"
       xx="true"
       bendpath1="m -199.08406,108.42369 h 7.0057"
       bendpath2="m -192.07836,108.42369 v 6.75242"
       bendpath3="m -199.08406,115.17611 h 7.0057"
       bendpath4="m -199.08406,108.42369 v 6.75242" />
    <inkscape:path-effect
       effect="bend_path"
       id="path-effect4656"
       is_visible="true"
       bendpath="m -192.00142,114.60623 c 2.12577,-0.53066 4.48261,0.85111 7.0057,0"
       prop_scale="1"
       scale_y_rel="false"
       vertical="false"
       bendpath-nodetypes="cc" />
    <inkscape:path-effect
       effect="bounding_box"
       id="path-effect4654"
       is_visible="true"
       linkedpath=""
       visualbounds="false" />
  </defs>
  <sodipodi:namedview
     id="base"
     pagecolor="#ffffff"
     bordercolor="#666666"
     borderopacity="1.0"
     inkscape:pageopacity="0.0"
     inkscape:pageshadow="2"
     inkscape:zoom="0.70710678"
     inkscape:cx="859.81981"
     inkscape:cy="-37.962479"
     inkscape:document-units="mm"
     inkscape:current-layer="g5334"
     showgrid="false"
     fit-margin-top="0"
     fit-margin-left="0"
     fit-margin-right="0"
     fit-margin-bottom="0"
     inkscape:window-width="1920"
     inkscape:window-height="1017"
     inkscape:window-x="-8"
     inkscape:window-y="-8"
     inkscape:window-maximized="1"
     showguides="false"
     inkscape:object-nodes="true"
     units="px"
     inkscape:snap-page="true" />
  <metadata
     id="metadata5">
    <rdf:RDF>
      <cc:Work
         rdf:about="">
        <dc:format>image/svg+xml</dc:format>
        <dc:type
           rdf:resource="http://purl.org/dc/dcmitype/StillImage" />
        <dc:title />
      </cc:Work>
    </rdf:RDF>
  </metadata>
  <g
     inkscape:label="Layer 1"
     inkscape:groupmode="layer"
     id="layer1"
     transform="translate(249.80447,-91.409467)">
    <g
       style="stroke-width:0.5"
       id="g5334"
       transform="matrix(2,0,0,2,-249.80447,91.409467)">
      <rect
         ry="1.984375"
         rx="1.984375"
         style="opacity:1;fill:#222222;fill-opacity:1;fill-rule:nonzero;stroke:none;stroke-width:0.25;stroke-linecap:butt;stroke-linejoin:round;stroke-miterlimit:4;stroke-dasharray:none;stroke-dashoffset:0;stroke-opacity:0.90944878;paint-order:normal"
         id="rect5322"
         width="26.458334"
         height="26.458334"
         x="0"
         y="-1.110223e-16" />
      <rect
         ry="1.3229166"
         rx="1.3229166"
         y="1.322917"
         x="1.322917"
         height="23.8125"
         width="23.8125"
         id="rect5324"
         style="opacity:1;fill:#00897b;fill-opacity:1;fill-rule:nonzero;stroke:none;stroke-width:0.25;stroke-linecap:butt;stroke-linejoin:round;stroke-miterlimit:4;stroke-dasharray:none;stroke-dashoffset:0;stroke-opacity:0.90944878;paint-order:normal" />
      <path
         inkscape:connector-curvature="0"
         id="path5326"
         d="m 0.72760467,18.520836 v 4.167188 c 0,1.539081 1.23904383,2.778124 2.77812503,2.778124 H 22.952604 c 1.539081,0 2.778125,-1.239043 2.778125,-2.778124 v -4.167188 z"
         style="opacity:1;fill:#222222;fill-opacity:1;fill-rule:nonzero;stroke:none;stroke-width:0.24999999;stroke-linecap:butt;stroke-linejoin:round;stroke-miterlimit:4;stroke-dasharray:none;stroke-dashoffset:0;stroke-opacity:0.90944878;paint-order:normal" />
      <path
         style="fill:#222222;fill-opacity:1;stroke-width:0.5"
         d="M 9.402202,18.520836 9.3842353,17.714385 8.7707532,17.612582 C 8.1138401,17.503572 7.2415254,17.250004 6.7688637,17.030669 5.9935039,16.670865 5.1956549,15.936571 4.9192966,15.328429 4.7733514,15.00727 4.7427698,14.852188 4.7438705,14.438837 c 0.00158,-0.597901 0.1498429,-0.938029 0.5540116,-1.271053 0.4177441,-0.344212 0.8957956,-0.507124 1.50327,-0.512292 0.5940108,-0.005 0.967738,0.115408 1.3599039,0.438346 1.2780673,1.052439 0.5843599,2.795862 -1.181084,2.968295 l -0.413681,0.04041 0.180008,0.17136 c 0.3424198,0.325973 1.1140979,0.626783 2.0760653,0.809279 0.6640289,0.125971 0.5941596,0.42663 0.5941596,-2.556758 V 11.904742 L 9.0774941,11.763171 C 8.8910279,11.685314 8.4861275,11.515931 8.1777156,11.386766 6.7313225,10.781013 5.720306,9.8937709 5.3432851,8.8993427 5.0479427,8.1203492 5.1364793,6.8520664 5.5433302,6.0336994 6.1097441,4.8943785 7.4248515,4.0262524 9.0452057,3.7220492 l 0.3713182,-0.06971 V 2.8908535 2.1293682 h 0.2583083 0.2583083 v 0.7362127 0.736212 h 0.6457715 0.645771 V 2.8655809 2.1293682 h 0.290596 0.290597 v 0.7656611 c 0,0.4211134 0.0218,0.7658609 0.04843,0.7661056 0.214223,0.00197 0.952992,0.1475188 1.352563,0.266479 1.647274,0.4904269 2.62301,1.3571426 2.715888,2.4124377 0.04107,0.4666781 -0.08942,0.8239198 -0.424568,1.1622535 C 15.118297,7.8858179 14.836133,7.9887054 14.16294,7.989196 13.631335,7.989607 13.551591,7.974022 13.228292,7.8067721 12.800408,7.5854242 12.491929,7.2031327 12.383007,6.7592262 c -0.06871,-0.2800274 -0.06207,-0.3634799 0.0575,-0.7225142 0.142449,-0.4277199 0.280509,-0.5849832 0.765472,-0.8719213 0.202322,-0.1197082 0.36002,-0.1621559 0.629103,-0.1693363 0.197502,-0.00527 0.359334,-0.029129 0.359623,-0.053016 0.0019,-0.1545445 -1.026083,-0.5681251 -1.71077,-0.6883032 -0.213104,-0.037405 -0.45317,-0.080796 -0.533479,-0.096425 l -0.146016,-0.028419 0.01686,2.4195036 0.01686,2.4195043 0.633602,0.2272833 c 1.370901,0.4917626 2.561358,1.1150746 3.199509,1.6752286 0.884419,0.776326 1.16184,1.294261 1.21711,2.27229 0.06066,1.073182 -0.157017,1.861345 -0.735324,2.66262 -0.521865,0.72307 -1.273547,1.201124 -2.432831,1.547225 -0.385558,0.115114 -0.974017,0.240735 -1.307686,0.279172 l -0.606669,0.06989 v 0.81264 0.812643 h -0.290592 -0.290596 v -0.79511 -0.79511 H 10.578912 9.9331405 v 0.79511 0.795108 H 9.6766546 9.4201685 Z m 1.580316,-1.313036 0.242165,-8.12e-4 V 14.857297 12.5076 l -0.58164,-0.212321 c -0.319901,-0.116778 -0.610499,-0.212322 -0.6457706,-0.212322 -0.041467,0 -0.064131,0.903997 -0.064131,2.558633 v 2.558632 l 0.2744526,0.02366 c 0.150949,0.01296 0.332573,0.01491 0.403607,0.0043 0.07104,-0.01075 0.238128,-0.01984 0.371318,-0.02027 z m 1.531619,-0.339787 c 0.485697,-0.208834 1.050883,-0.710139 1.231991,-1.092741 0.200732,-0.424062 0.203264,-1.131137 0.0055,-1.538866 -0.274099,-0.565145 -0.726598,-0.944109 -1.62073,-1.357346 l -0.325014,-0.15022 v 2.186566 2.186566 l 0.1755,-0.04017 c 0.09652,-0.0221 0.336268,-0.109294 0.532761,-0.193783 z M 11.224683,6.4288476 V 4.072969 l -0.403608,6.588e-4 c -0.221983,3.564e-4 -0.512938,0.017132 -0.646566,0.037273 l -0.2429617,0.036624 0.01694,2.1229688 0.01694,2.122969 0.1614437,0.042987 c 0.08879,0.023644 0.36486,0.1106938 0.613482,0.1934343 0.248622,0.082748 0.459305,0.1514358 0.468184,0.1526467 0.0089,0.00122 0.01615,-1.0579438 0.01615,-2.3536777 z M 9.4165239,6.2227086 c 0,-2.1780523 0.040029,-2.0522223 -0.5539916,-1.7414769 C 8.3787625,4.7343033 7.9129084,5.2270085 7.7725255,5.6340645 7.5337467,6.3264327 7.7293625,6.9430095 8.3637291,7.4975217 8.6004502,7.7044444 9.2685506,8.1277474 9.368091,8.1338773 9.394729,8.1354973 9.416524,7.2754917 9.4165239,6.2227086 Z"
         id="path5347"
         inkscape:connector-curvature="0" />
      <g
         transform="matrix(0.50000001,0,0,0.50000001,60.480878,-76.495307)"
         aria-label="시장 지향"
         style="font-style:normal;font-variant:normal;font-weight:500;font-stretch:normal;font-size:8.46666622px;line-height:4.23333311px;font-family:Montserrat;-inkscape-font-specification:'Montserrat Medium';text-align:center;letter-spacing:0px;text-anchor:middle;opacity:1;fill:#eeeeee;fill-opacity:1;fill-rule:nonzero;stroke:none;stroke-width:4.23333311;stroke-linecap:butt;stroke-linejoin:round;stroke-miterlimit:4;stroke-dasharray:none;stroke-dashoffset:0;stroke-opacity:1;paint-order:stroke fill markers"
         id="text171">
        <path
           inkscape:connector-curvature="0"
           d="m -110.38987,200.16265 q -0.28787,-0.1778 -0.56727,-0.41487 -0.2794,-0.23706 -0.51646,-0.51646 -0.24554,-0.27094 -0.44027,-0.56727 -0.18627,-0.29633 -0.28787,-0.5842 -0.11853,0.3048 -0.3048,0.6096 -0.18626,0.3048 -0.4318,0.5842 -0.23706,0.2794 -0.52493,0.52493 -0.2794,0.24554 -0.59267,0.44027 l -0.55033,-0.69427 q 0.381,-0.2286 0.71967,-0.5588 0.34713,-0.3302 0.61806,-0.762 0.26247,-0.4318 0.42334,-0.92286 0.16086,-0.49954 0.16086,-1.08373 v -1.22767 h 0.9398 v 1.21073 q 0,0.5588 0.14394,1.0414 0.1524,0.4826 0.4064,0.89747 0.26246,0.41486 0.60113,0.74506 0.34713,0.3302 0.7366,0.5588 z m 1.33773,-5.57953 h 0.9144 v 7.40833 h -0.9144 z"
           style="font-style:normal;font-variant:normal;font-weight:normal;font-stretch:normal;font-size:8.46666622px;font-family:'제주고딕';-inkscape-font-specification:'제주고딕';text-align:center;letter-spacing:0px;text-anchor:middle;fill:#eeeeee;fill-opacity:1;stroke-width:4.23333311"
           id="path223" />
        <path
           inkscape:connector-curvature="0"
           d="m -102.71127,199.05352 q 0.38947,0 0.75354,0.11853 0.37253,0.11853 0.6604,0.33867 0.28786,0.22013 0.4572,0.55033 0.1778,0.32173 0.1778,0.72813 0,0.4064 -0.1778,0.72814 -0.16934,0.3302 -0.4572,0.55033 -0.28787,0.22013 -0.6604,0.33867 -0.36407,0.11853 -0.75354,0.11853 -0.38946,0 -0.762,-0.11853 -0.36406,-0.11854 -0.65193,-0.33867 -0.28787,-0.22013 -0.46567,-0.55033 -0.16933,-0.32174 -0.16933,-0.72814 0,-0.4064 0.16933,-0.72813 0.1778,-0.3302 0.46567,-0.55033 0.28787,-0.22014 0.65193,-0.33867 0.37254,-0.11853 0.762,-0.11853 z m 0.0847,-0.254 q -0.61807,-0.254 -1.10067,-0.64347 -0.47413,-0.38947 -0.70273,-0.7874 -0.23707,0.44873 -0.71967,0.88053 -0.4826,0.42334 -1.10913,0.72814 l -0.5842,-0.65194 q 0.381,-0.19473 0.72813,-0.42333 0.34714,-0.23707 0.6096,-0.52493 0.26247,-0.29634 0.41487,-0.65194 0.16087,-0.35559 0.16087,-0.79586 v -0.16933 h -1.49014 v -0.7874 h 3.9624 v 0.7874 h -1.49013 v 0.1524 q 0,0.4064 0.14393,0.74506 0.1524,0.3302 0.4064,0.60113 0.26247,0.27094 0.60114,0.49107 0.34713,0.22013 0.7366,0.39793 z m 3.242733,-1.61714 h -1.193803 v 1.78647 h -0.9144 v -4.38573 h 0.9144 v 1.82033 h 1.193803 z m -3.327403,2.65854 q -0.2286,0 -0.4318,0.0762 -0.2032,0.0677 -0.3556,0.19473 -0.1524,0.127 -0.24553,0.3048 -0.0847,0.16933 -0.0847,0.37253 0,0.22014 0.0847,0.38947 0.0931,0.1778 0.24553,0.29633 0.1524,0.127 0.3556,0.19474 0.2032,0.0677 0.4318,0.0677 0.2286,0 0.4318,-0.0677 0.2032,-0.0677 0.3556,-0.19474 0.1524,-0.11853 0.23707,-0.29633 0.0931,-0.16933 0.0931,-0.38947 0,-0.2032 -0.0931,-0.37253 -0.0847,-0.1778 -0.23707,-0.3048 -0.1524,-0.127 -0.3556,-0.19473 -0.2032,-0.0762 -0.4318,-0.0762 z"
           style="font-style:normal;font-variant:normal;font-weight:normal;font-stretch:normal;font-size:8.46666622px;font-family:'제주고딕';-inkscape-font-specification:'제주고딕';text-align:center;letter-spacing:0px;text-anchor:middle;fill:#eeeeee;fill-opacity:1;stroke-width:4.23333311"
           id="path225" />
        <path
           inkscape:connector-curvature="0"
           d="m -91.110081,194.58312 h 0.9144 v 7.40833 h -0.9144 z m -1.134534,1.2954 h -1.523999 v 0.508 q 0,1.12606 0.499533,1.89653 0.499533,0.75353 1.27,1.20227 l -0.575734,0.69426 q -0.5588,-0.381 -1.015999,-0.88053 -0.4572,-0.508 -0.6604,-1.0668 -0.2286,0.6096 -0.677334,1.143 -0.440266,0.52493 -1.024466,0.90593 l -0.575734,-0.64346 q 0.381,-0.23707 0.702734,-0.54187 0.3302,-0.3048 0.575733,-0.7112 0.237067,-0.4064 0.372533,-0.889 0.143934,-0.4826 0.143934,-1.0922 v -0.52493 h -1.557867 v -0.77893 h 4.047066 z"
           style="font-style:normal;font-variant:normal;font-weight:normal;font-stretch:normal;font-size:8.46666622px;font-family:'제주고딕';-inkscape-font-specification:'제주고딕';text-align:center;letter-spacing:0px;text-anchor:middle;fill:#eeeeee;fill-opacity:1;stroke-width:4.23333311"
           id="path227" />
        <path
           inkscape:connector-curvature="0"
           d="m -85.666676,198.00365 q 0,-0.27093 -0.237067,-0.44873 -0.2286,-0.1778 -0.567267,-0.1778 -0.338666,0 -0.575733,0.1778 -0.2286,0.1778 -0.2286,0.44873 0,0.27093 0.2286,0.44873 0.237067,0.1778 0.575733,0.1778 0.338667,0 0.567267,-0.1778 0.237067,-0.1778 0.237067,-0.44873 z m -2.1082,-2.65006 v -0.77047 h 2.599266 v 0.77047 z m 1.9304,5.65573 q 0,0.14393 0.0762,0.27093 0.0762,0.13547 0.220133,0.23707 0.143933,0.11006 0.3556,0.16933 0.220133,0.0677 0.491067,0.0677 0.2794,0 0.491066,-0.0677 0.211667,-0.0593 0.3556,-0.16933 0.143934,-0.1016 0.220134,-0.23707 0.0762,-0.127 0.0762,-0.27093 0,-0.13547 -0.0762,-0.27094 -0.0762,-0.13546 -0.220134,-0.23706 -0.143933,-0.11007 -0.3556,-0.16934 -0.211666,-0.0677 -0.491066,-0.0677 -0.270934,0 -0.491067,0.0677 -0.211667,0.0593 -0.3556,0.16934 -0.143933,0.1016 -0.220133,0.23706 -0.0762,0.13547 -0.0762,0.27094 z m -2.827867,-4.55507 v -0.75353 h 4.402667 v 0.75353 z m 7.230533,0.39793 h -1.1938 v 0.762 h 1.1938 v 0.77894 h -1.1938 v 1.0668 h -0.9144 v -4.8768 h 0.9144 v 1.49013 h 1.1938 z m -3.386666,1.15147 q 0,0.2794 -0.127,0.52493 -0.118534,0.23707 -0.338667,0.42334 -0.220133,0.1778 -0.524933,0.2794 -0.296334,0.1016 -0.651934,0.1016 -0.3556,0 -0.6604,-0.1016 -0.296333,-0.1016 -0.516466,-0.2794 -0.220134,-0.18627 -0.347134,-0.42334 -0.118533,-0.24553 -0.118533,-0.52493 0,-0.2794 0.118533,-0.51647 0.127,-0.24553 0.347134,-0.42333 0.220133,-0.18627 0.516466,-0.28787 0.3048,-0.1016 0.6604,-0.1016 0.3556,0 0.651934,0.1016 0.3048,0.1016 0.524933,0.28787 0.220133,0.1778 0.338667,0.42333 0.127,0.23707 0.127,0.51647 z m -1.938867,3.00567 q 0,-0.3302 0.1524,-0.60114 0.160867,-0.27093 0.440267,-0.46566 0.2794,-0.19474 0.651933,-0.3048 0.381,-0.11007 0.821267,-0.11007 0.440266,0 0.8128,0.11007 0.381,0.11006 0.6604,0.31326 0.2794,0.19474 0.4318,0.46567 0.160866,0.27093 0.160866,0.59267 0,0.32173 -0.160866,0.59266 -0.1524,0.2794 -0.4318,0.47414 -0.2794,0.19473 -0.6604,0.3048 -0.372534,0.11006 -0.8128,0.11006 -0.440267,0 -0.821267,-0.11006 -0.372533,-0.11007 -0.651933,-0.3048 -0.2794,-0.19474 -0.440267,-0.46567 -0.1524,-0.27093 -0.1524,-0.60113 z"
           style="font-style:normal;font-variant:normal;font-weight:normal;font-stretch:normal;font-size:8.46666622px;font-family:'제주고딕';-inkscape-font-specification:'제주고딕';text-align:center;letter-spacing:0px;text-anchor:middle;fill:#eeeeee;fill-opacity:1;stroke-width:4.23333311"
           id="path229" />
      </g>
    </g>
  </g>
</svg>
